<svg width="320" height="664" viewBox="0 0 320 664" fill="none" xmlns="http://www.w3.org/2000/svg">
<path d="M274.342 -1H45.7565C20.8482 -1 0.643555 19.1863 0.643555 44.072C0.643555 53.2304 0.643555 610.799 0.643555 618.928C0.643555 643.814 20.8482 664 45.7565 664H274.342C299.251 664 319.455 643.814 319.455 618.928C319.455 610.781 319.455 53.2476 319.455 44.072C319.455 19.1863 299.268 -1 274.342 -1ZM315.078 617.35C315.078 640.692 296.126 659.627 272.763 659.627H47.3358C23.9725 659.627 5.02093 640.692 5.02093 617.35C5.02093 609.238 5.02093 54.7911 5.02093 45.6498C5.02093 22.3078 23.9725 3.37342 47.3358 3.37342H272.763C296.126 3.37342 315.078 22.3078 315.078 45.6498C315.078 54.7568 315.078 609.255 315.078 617.35Z" fill="black"/>
</svg>
